<svg xmlns="http://www.w3.org/2000/svg" width="10.051" height="10.051" viewBox="0 0 10.051 10.051"><path d="M9.726,7.416a2.609,2.609,0,1,0,2.609,2.61A2.613,2.613,0,0,0,9.726,7.416Zm0,4.224a1.614,1.614,0,1,1,1.614-1.614A1.615,1.615,0,0,1,9.726,11.64ZM11.859,5H7.592A2.9,2.9,0,0,0,4.7,7.892v4.266a2.9,2.9,0,0,0,2.892,2.892h4.266a2.9,2.9,0,0,0,2.892-2.892V7.892A2.9,2.9,0,0,0,11.859,5Zm1.9,7.159a1.9,1.9,0,0,1-1.9,1.9H7.592a1.9,1.9,0,0,1-1.9-1.9V7.892A1.9,1.9,0,0,1,7.592,6h4.266a1.9,1.9,0,0,1,1.9,1.9v4.266Zm-1.385-5.5a.683.683,0,1,0,.683.683A.684.684,0,0,0,12.371,6.662Z" transform="translate(-4.7 -5)"/></svg>