<svg xmlns="http://www.w3.org/2000/svg" width="10.051" height="8.166" viewBox="0 0 10.051 8.166"><path d="M72.451,145.366a4.138,4.138,0,0,1-1.184.325,2.065,2.065,0,0,0,.906-1.141,4.146,4.146,0,0,1-1.309.5,2.063,2.063,0,0,0-3.568,1.41,2.1,2.1,0,0,0,.053.47,5.85,5.85,0,0,1-4.25-2.155,2.065,2.065,0,0,0,.637,2.753,2.043,2.043,0,0,1-.934-.258v.026a2.063,2.063,0,0,0,1.654,2.022,2.06,2.06,0,0,1-.543.072,2.038,2.038,0,0,1-.387-.037,2.064,2.064,0,0,0,1.925,1.432,4.167,4.167,0,0,1-3.052.853,5.865,5.865,0,0,0,9.028-4.94c0-.09,0-.178-.006-.266A4.193,4.193,0,0,0,72.451,145.366Z" transform="translate(-62.4 -144.4)"/></svg>