<svg xmlns="http://www.w3.org/2000/svg" width="10.051" height="8.041" viewBox="0 0 10.051 8.041"><path d="M10.051,152.757h-.017c0-.112,0-.224,0-.336s-.01-.22-.017-.33c-.009-.136-.021-.273-.032-.409s-.013-.275-.037-.408c-.036-.2-.081-.4-.134-.594a1.381,1.381,0,0,0-.224-.482,1.267,1.267,0,0,0-.889-.515c-.186-.022-.374-.036-.561-.048-.172-.013-.344-.022-.517-.029q-.389-.017-.778-.03c-.254-.008-.509-.016-.762-.018-.5,0-1-.009-1.5,0s-1.01.02-1.516.031c-.213,0-.426.013-.639.02q-.1,0-.2.01c-.221.015-.442.026-.662.048a2.621,2.621,0,0,0-.442.07,1.2,1.2,0,0,0-.748.6,2.331,2.331,0,0,0-.241.757c-.035.217-.056.437-.076.657s-.031.446-.042.669c-.01.182-.017.365-.017.547q0,.776.008,1.553c0,.13.009.259.017.388.012.185.026.369.04.553.01.137.017.274.036.409a3.779,3.779,0,0,0,.16.679,1.23,1.23,0,0,0,.746.812,2.75,2.75,0,0,0,.7.136c.191.021.383.028.575.038.158.008.317.015.475.02q.372.012.745.02c.23,0,.46.01.691.013.4,0,.809.013,1.212.009.507,0,1.013-.02,1.52-.031.208,0,.415-.013.623-.02.068,0,.138-.006.206-.01.228-.015.456-.028.684-.048a2.827,2.827,0,0,0,.427-.058,1.26,1.26,0,0,0,.923-.89,4.093,4.093,0,0,0,.192-1.036c.014-.2.031-.4.04-.6.012-.257.023-.515.025-.772.006-.455,0-.912,0-1.368Zm-6.064,2.3v-3.219L6.7,153.456l-2.715,1.6Z" transform="translate(0 -149.551)"/></svg>